# xmcd
#
# Track frame offsets:
#	244
#	10723
#	23274
#	35930
#	51284
#	68473
#	83823
#	104153
#	117188
#	129104
#
# Disc length: 1895 seconds
# Revision: 0
# Processed by: cddbd v1.5.2PL0 Copyright (c) Steve Scherf et al.
# Submitted via: dBpowerAMP V12.0
#
DISCID=7607640a
DTITLE=Lisa Biales - Singing In My Soul
DYEAR=2013
DGENRE=Blues
TTITLE0=A Little Bird Told Me
TTITLE1=Strange Things Happening Every Day
TTITLE2=Let the Mermaids Flirt With Me
TTITLE3=You Got To Know How
TTITLE4=Magic Garden
TTITLE5=Careless Love
TTITLE6=I Only Have Eyes For You
TTITLE7=Waiting For the Train To Come In
TTITLE8=Write Me In Care of the Blues
TTITLE9=Singing In My Soul
EXTD=
EXTT0=
EXTT1=
EXTT2=
EXTT3=
EXTT4=
EXTT5=
EXTT6=
EXTT7=
EXTT8=
EXTT9=
PLAYORDER=
